<svg xmlns="http://www.w3.org/2000/svg" width="547.84" height="127.484" viewBox="0 0 547.84 127.484"><defs><style>.a{fill:#fff;}.b{fill:#3ab1a7;}</style></defs><g transform="translate(-831.997 -510.996)"><path class="a" d="M906.089,511a3.829,3.829,0,0,0-2.772,1.218,4.161,4.161,0,0,0-1.223,3.058v60.834c0,10.406-2.632,18.317-7.824,23.509s-13.01,7.826-23.227,7.826c-20.992,0-31.194-10.251-31.194-31.336V515.28a4.5,4.5,0,0,0-1.023-3A3.59,3.59,0,0,0,836,511a3.8,3.8,0,0,0-2.944,1.179,4.425,4.425,0,0,0-1.048,3.1v59.836c0,13.124,3.332,23.21,9.9,29.972s16.38,10.206,29.14,10.206c12.663,0,22.44-3.431,29.066-10.2s9.973-16.847,9.973-29.974V515.28a4.314,4.314,0,0,0-1.121-3.028A3.768,3.768,0,0,0,906.089,511" transform="translate(0 0.003)"/><path class="a" d="M908,525.146a29.667,29.667,0,0,0-14.957,3.766,23.415,23.415,0,0,0-7.977,7.466v-6.669a4.657,4.657,0,0,0-.942-3.063,3.6,3.6,0,0,0-2.908-1.216,3.77,3.77,0,0,0-3.992,4.279v64.534a4.429,4.429,0,0,0,1.045,3.1,4.268,4.268,0,0,0,5.893,0,4.429,4.429,0,0,0,1.048-3.1V556.635a23.8,23.8,0,0,1,6.339-17.321,22.647,22.647,0,0,1,16.877-6.466c6.219,0,10.758,1.587,13.493,4.714,2.765,3.171,4.171,8.342,4.171,15.371v41.314a4.413,4.413,0,0,0,1.045,3.1,3.813,3.813,0,0,0,2.947,1.181,3.769,3.769,0,0,0,3.992-4.277V552.361c0-18.059-8.773-27.215-26.075-27.215" transform="translate(52.221 16.346)"/><path class="a" d="M1031.826,562.087c0,9.4-2.057,16.694-6.115,21.665-4.005,4.906-9.857,7.393-17.388,7.393a20.919,20.919,0,0,1-17.1-7.394c-4.057-4.968-6.113-12.258-6.113-21.665,0-9.119,2.1-16.312,6.255-21.375a23.171,23.171,0,0,1,34.209,0c4.149,5.067,6.255,12.258,6.255,21.375M1025.1,529.9a30.6,30.6,0,0,0-44.463,12.957,49.235,49.235,0,0,0,0,38.609,30.607,30.607,0,0,0,55.661,0,49.235,49.235,0,0,0,0-38.609,30.367,30.367,0,0,0-11.2-12.957" transform="translate(167.191 16.163)"/><path class="a" d="M1066.417,577.966c0,9.313-2.082,16.629-6.189,21.74a23.175,23.175,0,0,1-34.2.142c-4.015-5.013-6.05-12.279-6.05-21.6,0-9.221,2.035-16.44,6.05-21.455a20.623,20.623,0,0,1,17.023-7.46,21.133,21.133,0,0,1,17.181,7.4c4.1,4.973,6.18,12.116,6.18,21.231m-6.585-31.9h0a30.6,30.6,0,0,0-16.632-4.572,28.778,28.778,0,0,0-15.416,4,24.241,24.241,0,0,0-7.8,7.787v-38a4.441,4.441,0,0,0-1.046-3.1,3.818,3.818,0,0,0-2.949-1.179,3.77,3.77,0,0,0-3.992,4.276v95.166a4.429,4.429,0,0,0,1.046,3.1,4.074,4.074,0,0,0,6.94-3.1v-7.158a23.982,23.982,0,0,0,7.8,7.868,28.8,28.8,0,0,0,15.416,4,30.233,30.233,0,0,0,16.638-4.645,30.738,30.738,0,0,0,11.193-13.1,45.492,45.492,0,0,0,3.942-19.444,43.714,43.714,0,0,0-3.947-19.1,30.492,30.492,0,0,0-11.2-12.805" transform="translate(207.941 0)"/><path class="a" d="M1062.195,539.186a22.463,22.463,0,0,1,16.738-6.466A19.826,19.826,0,0,1,1094.563,539c3.555,4.033,5.516,9.868,5.844,17.356h-45.579a28.624,28.624,0,0,1,7.367-17.175m44.257,44.211a3.256,3.256,0,0,0-2.449-1.108c-.6,0-1.548.261-4.419,2.175a44.689,44.689,0,0,1-8.571,4.738,29.066,29.066,0,0,1-10.943,1.776c-8.029,0-14.324-2.431-18.707-7.225-4.246-4.641-6.525-11.307-6.768-19.834h47.985a5.424,5.424,0,0,0,4.313-1.481,6.431,6.431,0,0,0,1.245-4.362c0-10.083-2.623-18.166-7.8-24.027a27.216,27.216,0,0,0-21.406-8.887,32.192,32.192,0,0,0-17.2,4.638,31.051,31.051,0,0,0-11.624,13.017,43.31,43.31,0,0,0-4.093,19.246c0,11.325,3.087,20.373,9.172,26.9,6.1,6.542,14.57,9.863,25.165,9.863a42.01,42.01,0,0,0,21.761-6.283,16.206,16.206,0,0,0,4.029-3.285,5.454,5.454,0,0,0,1.282-3.4,3.561,3.561,0,0,0-.973-2.453Z" transform="translate(247.283 16.333)"/><path class="b" d="M920.158,511.41a8.472,8.472,0,1,0,8.473,8.473,8.471,8.471,0,0,0-8.473-8.473" transform="translate(92.079 0.478)"/><path class="a" d="M969.7,511a3.814,3.814,0,0,0-2.946,1.179,4.426,4.426,0,0,0-1.047,3.1v95.308a4.425,4.425,0,0,0,1.047,3.1,3.81,3.81,0,0,0,2.946,1.182,3.766,3.766,0,0,0,2.873-1.25,4.312,4.312,0,0,0,1.121-3.028V515.279a4.327,4.327,0,0,0-1.121-3.028A3.77,3.77,0,0,0,969.7,511" transform="translate(154.492 0.003)"/><path class="a" d="M925.961,526.464a3.814,3.814,0,0,0-2.944-1.179h-.043a1.941,1.941,0,0,0-.315-.013,3.98,3.98,0,0,0-1.974.664,5.138,5.138,0,0,0-.865.692l-8.551,8.728a4.414,4.414,0,0,0-1.45,2.93,4.265,4.265,0,0,0,4.167,4.167,4.439,4.439,0,0,0,2.938-1.457l2.1-2.143V594.1a4.419,4.419,0,0,0,1.046,3.095,4.263,4.263,0,0,0,5.9,0,4.431,4.431,0,0,0,1.045-3.1V529.418a4.232,4.232,0,0,0-1.045-2.955Z" transform="translate(89.92 16.493)"/><path class="a" d="M981.419,560.057c0,8.549-2.1,15.351-6.244,20.223a21.52,21.52,0,0,1-17.259,7.266,21.883,21.883,0,0,1-17.269-7.205c-4.231-4.824-6.376-11.646-6.376-20.283,0-8.54,2.145-15.315,6.376-20.139a21.878,21.878,0,0,1,17.269-7.21,21.621,21.621,0,0,1,17.261,7.2c4.141,4.826,6.242,11.605,6.242,20.147m6.837-33.759a3.88,3.88,0,0,0-2.845-1.149,3.77,3.77,0,0,0-3.992,4.279v7.234a24.2,24.2,0,0,0-7.879-7.8,29.44,29.44,0,0,0-15.625-3.994,31.7,31.7,0,0,0-16.688,4.419,30.106,30.106,0,0,0-11.346,12.444,40.352,40.352,0,0,0-4.024,18.33,40.776,40.776,0,0,0,4.022,18.4,30,30,0,0,0,11.348,12.516,31.7,31.7,0,0,0,16.688,4.419,29.681,29.681,0,0,0,15.841-4.068,23.254,23.254,0,0,0,7.361-7.24v11.834a17.192,17.192,0,0,1-2.953,9.656c-3.889,5.854-10.454,8.954-18.984,8.954-9.012,0-19.188-7.346-21.223-9.165a3.342,3.342,0,0,0-4.82.377l-.707.855a3.374,3.374,0,0,0,.411,4.682c3.076,2.623,14.062,11.191,26.327,11.191,11.93,0,20.4-4.029,25.9-12.308a25.35,25.35,0,0,0,4.339-14.243l-.008-66.632a4.062,4.062,0,0,0-1.147-2.988" transform="translate(108.444 16.012)"/><path class="a" d="M1088.556,559.1a1.4,1.4,0,0,0,.463-1.179,1.421,1.421,0,0,0-.45-1.19,2.3,2.3,0,0,0-1.406-.349h-2.128v3.08h2.128a2.245,2.245,0,0,0,1.393-.362m2.207,4.507a.785.785,0,0,1,.183.453.586.586,0,0,1-.248.487.928.928,0,0,1-1.362-.261l-1.787-2.739a1.414,1.414,0,0,0-1.406-.772h-1.108v3.1a.813.813,0,0,1-.228.623.982.982,0,0,1-1.222,0,.823.823,0,0,1-.228-.623v-7.994a.858.858,0,0,1,.215-.612.793.793,0,0,1,.6-.226h3.192a3.663,3.663,0,0,1,2.435.735,2.588,2.588,0,0,1,.872,2.1,2.644,2.644,0,0,1-.645,1.845,2.956,2.956,0,0,1-1.8.894,1.581,1.581,0,0,1,.679.338,4.01,4.01,0,0,1,.612.681Zm-.429,2.378a6.679,6.679,0,0,0,2.527-2.558,7.522,7.522,0,0,0,0-7.193,6.733,6.733,0,0,0-2.527-2.547,7.413,7.413,0,0,0-7.18,0,6.725,6.725,0,0,0-2.524,2.548,7.5,7.5,0,0,0,0,7.193,6.669,6.669,0,0,0,2.524,2.558,7.4,7.4,0,0,0,7.18,0m.532-13.183a7.817,7.817,0,0,1,2.91,2.912,8.466,8.466,0,0,1,0,8.221,7.851,7.851,0,0,1-2.92,2.923,8.4,8.4,0,0,1-8.224,0,7.85,7.85,0,0,1-2.92-2.923,8.463,8.463,0,0,1,0-8.221,7.79,7.79,0,0,1,2.921-2.912,8.506,8.506,0,0,1,8.233,0" transform="translate(284.996 47.074)"/></g></svg>