<?xml version="1.0" encoding="utf-8"?><!-- Uploaded to: SVG Repo, www.svgrepo.com, Generator: SVG Repo Mixer Tools -->
<svg fill="#000000" width="800px" height="800px" viewBox="0 0 24 24" id="down-direction" data-name="Flat Color" xmlns="http://www.w3.org/2000/svg" class="icon flat-color"><path id="primary" d="M20.76,13.81l-2.6-3a1,1,0,0,0-1.41-.11L15,12.16V4a2,2,0,0,0-2-2H11A2,2,0,0,0,9,4v8.16l-1.75-1.5a1,1,0,0,0-1.41.11l-2.6,3a1,1,0,0,0,.11,1.41l7.35,6.3a2,2,0,0,0,2.6,0l7.35-6.3A1,1,0,0,0,20.76,13.81Z" style="fill: rgb(0, 0, 0);"></path></svg>